<mxfile host="app.diagrams.net" agent="Mozilla/5.0 (Windows NT 10.0; Win64; x64) AppleWebKit/537.36 (KHTML, like Gecko) Chrome/128.0.0.0 Safari/537.36 Edg/128.0.0.0" version="24.7.7">
  <diagram name="Page-1" id="VDV-nvPSyXl6gtsV9bIT">
    <mxGraphModel dx="6077" dy="6267" grid="1" gridSize="10" guides="1" tooltips="1" connect="1" arrows="1" fold="1" page="1" pageScale="1" pageWidth="850" pageHeight="1100" math="0" shadow="0">
      <root>
        <mxCell id="0" />
        <mxCell id="1" parent="0" />
        <mxCell id="3-CJCpdt-LU1McN5Vxmz-75" value="&lt;b style=&quot;font-size: 11px;&quot;&gt;Source stage&lt;/b&gt;" style="rounded=0;whiteSpace=wrap;html=1;fillColor=#f5f5f5;verticalAlign=top;align=left;shadow=1;fontColor=#333333;strokeColor=#666666;fontFamily=Roboto Mono;fontSource=https%3A%2F%2Ffonts.googleapis.com%2Fcss%3Ffamily%3DRoboto%2BMono;fontSize=11;" vertex="1" parent="1">
          <mxGeometry x="211.5" y="-370" width="1028.5" height="360" as="geometry" />
        </mxCell>
        <mxCell id="3-CJCpdt-LU1McN5Vxmz-1" value="Bucket 1&amp;nbsp;&lt;div&gt;&lt;b&gt;(Source location)&lt;/b&gt;&lt;/div&gt;" style="sketch=0;outlineConnect=0;fontColor=#232F3E;gradientColor=none;fillColor=#7AA116;strokeColor=none;dashed=0;verticalLabelPosition=bottom;verticalAlign=top;align=center;html=1;fontSize=12;fontStyle=0;aspect=fixed;pointerEvents=1;shape=mxgraph.aws4.bucket;fontFamily=Roboto Mono;fontSource=https%3A%2F%2Ffonts.googleapis.com%2Fcss%3Ffamily%3DRoboto%2BMono;" vertex="1" parent="1">
          <mxGeometry x="400" y="50" width="48.08" height="50" as="geometry" />
        </mxCell>
        <mxCell id="3-CJCpdt-LU1McN5Vxmz-4" value="Bucket 2&amp;nbsp;&lt;div&gt;&lt;b&gt;(Deployment location)&lt;/b&gt;&lt;/div&gt;" style="sketch=0;outlineConnect=0;fontColor=#232F3E;gradientColor=none;fillColor=#7AA116;strokeColor=none;dashed=0;verticalLabelPosition=bottom;verticalAlign=top;align=center;html=1;fontSize=12;fontStyle=0;aspect=fixed;pointerEvents=1;shape=mxgraph.aws4.bucket;fontFamily=Roboto Mono;fontSource=https%3A%2F%2Ffonts.googleapis.com%2Fcss%3Ffamily%3DRoboto%2BMono;" vertex="1" parent="1">
          <mxGeometry x="621.9200000000001" y="50" width="48.08" height="50" as="geometry" />
        </mxCell>
        <mxCell id="3-CJCpdt-LU1McN5Vxmz-8" value="" style="group;fontFamily=Roboto Mono;fontSource=https%3A%2F%2Ffonts.googleapis.com%2Fcss%3Ffamily%3DRoboto%2BMono;" vertex="1" connectable="0" parent="1">
          <mxGeometry x="580" y="195" width="550" height="295" as="geometry" />
        </mxCell>
        <mxCell id="3-CJCpdt-LU1McN5Vxmz-7" value="&lt;div&gt;{&lt;/div&gt;&lt;div&gt;&lt;span style=&quot;white-space: normal;&quot;&gt;&lt;span style=&quot;white-space:pre&quot;&gt;&#x9;&lt;/span&gt;&quot;Version&quot;: &quot;2012-10-17&quot;,&lt;/span&gt;&lt;/div&gt;&lt;div&gt;&lt;span style=&quot;white-space: normal;&quot;&gt;&lt;span style=&quot;white-space:pre&quot;&gt;&#x9;&lt;/span&gt;&quot;Statement&quot;: [&lt;/span&gt;&lt;/div&gt;&lt;div&gt;&lt;span style=&quot;white-space: normal;&quot;&gt;&lt;span style=&quot;white-space:pre&quot;&gt;&#x9;&#x9;&lt;/span&gt;{&lt;/span&gt;&lt;/div&gt;&lt;div&gt;&lt;span style=&quot;white-space: normal;&quot;&gt;&lt;span style=&quot;white-space:pre&quot;&gt;&#x9;&#x9;&#x9;&lt;/span&gt;&quot;Sid&quot;: &quot;PublicReadGetObject&quot;,&lt;/span&gt;&lt;/div&gt;&lt;div&gt;&lt;span style=&quot;white-space: normal;&quot;&gt;&lt;span style=&quot;white-space:pre&quot;&gt;&#x9;&#x9;&#x9;&lt;/span&gt;&quot;Principal&quot;: &quot;*&quot;,&lt;/span&gt;&lt;/div&gt;&lt;div&gt;&lt;span style=&quot;white-space: normal;&quot;&gt;&lt;span style=&quot;white-space:pre&quot;&gt;&#x9;&#x9;&#x9;&lt;/span&gt;&quot;Effect&quot;: &quot;Allow&quot;,&lt;/span&gt;&lt;/div&gt;&lt;div&gt;&lt;span style=&quot;white-space: normal;&quot;&gt;&lt;span style=&quot;white-space:pre&quot;&gt;&#x9;&#x9;&#x9;&lt;/span&gt;&quot;Action&quot;: [&lt;/span&gt;&lt;/div&gt;&lt;div&gt;&lt;span style=&quot;white-space: normal;&quot;&gt;&lt;span style=&quot;white-space:pre&quot;&gt;&#x9;&#x9;&#x9;&lt;/span&gt;&amp;nbsp; &amp;nbsp; &quot;s3:GetObject&quot;&lt;/span&gt;&lt;/div&gt;&lt;div&gt;&lt;span style=&quot;white-space: normal;&quot;&gt;&lt;span style=&quot;white-space:pre&quot;&gt;&#x9;&#x9;&#x9;&lt;/span&gt;],&lt;/span&gt;&lt;/div&gt;&lt;div&gt;&lt;span style=&quot;white-space: normal;&quot;&gt;&lt;span style=&quot;white-space:pre&quot;&gt;&#x9;&#x9;&#x9;&lt;/span&gt;&quot;Resource&quot;: [&lt;/span&gt;&lt;/div&gt;&lt;div&gt;&lt;span style=&quot;white-space: normal;&quot;&gt;&lt;span style=&quot;white-space:pre&quot;&gt;&#x9;&#x9;&#x9;&lt;/span&gt;&amp;nbsp; &amp;nbsp; &quot;arn:aws:s3:::bucket-devops-prod3167/*&quot;&lt;/span&gt;&lt;/div&gt;&lt;div&gt;&lt;span style=&quot;white-space: normal;&quot;&gt;&lt;span style=&quot;white-space:pre&quot;&gt;&#x9;&#x9;&#x9;&lt;/span&gt;]&lt;/span&gt;&lt;/div&gt;&lt;div&gt;&lt;span style=&quot;white-space: normal;&quot;&gt;&lt;span style=&quot;white-space:pre&quot;&gt;&#x9;&#x9;&lt;/span&gt;}&lt;/span&gt;&lt;/div&gt;&lt;div&gt;&lt;span style=&quot;white-space: normal;&quot;&gt;&lt;span style=&quot;white-space:pre&quot;&gt;&#x9;&lt;/span&gt;]&lt;/span&gt;&lt;/div&gt;&lt;div&gt;}&lt;/div&gt;" style="text;html=1;align=left;verticalAlign=middle;whiteSpace=wrap;rounded=0;fillColor=#d5e8d4;strokeColor=#82b366;fontFamily=Roboto Mono;fontSource=https%3A%2F%2Ffonts.googleapis.com%2Fcss%3Ffamily%3DRoboto%2BMono;" vertex="1" parent="3-CJCpdt-LU1McN5Vxmz-8">
          <mxGeometry width="550" height="295" as="geometry" />
        </mxCell>
        <mxCell id="3-CJCpdt-LU1McN5Vxmz-6" value="" style="sketch=0;outlineConnect=0;fontColor=#232F3E;gradientColor=none;fillColor=#7AA116;strokeColor=none;dashed=0;verticalLabelPosition=bottom;verticalAlign=top;align=center;html=1;fontSize=12;fontStyle=0;aspect=fixed;pointerEvents=1;shape=mxgraph.aws4.policy;fontFamily=Roboto Mono;fontSource=https%3A%2F%2Ffonts.googleapis.com%2Fcss%3Ffamily%3DRoboto%2BMono;" vertex="1" parent="3-CJCpdt-LU1McN5Vxmz-8">
          <mxGeometry x="15.714285714285737" y="102.6086956521739" width="62.777142857142856" height="53.919999999999995" as="geometry" />
        </mxCell>
        <mxCell id="3-CJCpdt-LU1McN5Vxmz-10" value="&lt;div&gt;&lt;br&gt;&lt;/div&gt;&lt;div&gt;Static website hosting&lt;/div&gt;&lt;div&gt;&lt;br&gt;&lt;/div&gt;" style="html=1;shadow=0;dashed=0;shape=mxgraph.bootstrap.radioButton2;labelPosition=right;verticalLabelPosition=middle;align=left;verticalAlign=middle;gradientColor=none;fillColor=#3399FF;checked=0;spacing=5;checkedFill=#0085FC;checkedStroke=#ffffff;fontFamily=Roboto Mono;fontSource=https%3A%2F%2Ffonts.googleapis.com%2Fcss%3Ffamily%3DRoboto%2BMono;" vertex="1" parent="1">
          <mxGeometry x="580" y="150" width="10" height="10" as="geometry" />
        </mxCell>
        <mxCell id="3-CJCpdt-LU1McN5Vxmz-17" value="&lt;div&gt;&lt;br&gt;&lt;/div&gt;&lt;div&gt;&lt;div&gt;Block public&amp;nbsp;&lt;span style=&quot;background-color: initial;&quot;&gt;access&lt;/span&gt;&lt;/div&gt;&lt;/div&gt;&lt;div&gt;&lt;br&gt;&lt;/div&gt;" style="html=1;shadow=0;dashed=0;shape=mxgraph.bootstrap.radioButton2;labelPosition=right;verticalLabelPosition=middle;align=left;verticalAlign=middle;gradientColor=none;fillColor=#FFFFFF;checked=0;spacing=5;checkedFill=#0085FC;checkedStroke=#ffffff;fontFamily=Roboto Mono;fontSource=https%3A%2F%2Ffonts.googleapis.com%2Fcss%3Ffamily%3DRoboto%2BMono;" vertex="1" parent="1">
          <mxGeometry x="580" y="172.5" width="10" height="10" as="geometry" />
        </mxCell>
        <mxCell id="3-CJCpdt-LU1McN5Vxmz-38" value="&lt;div&gt;Bucket&amp;nbsp;&lt;span style=&quot;background-color: initial;&quot;&gt;Versioning&lt;/span&gt;&lt;/div&gt;" style="html=1;shadow=0;dashed=0;shape=mxgraph.bootstrap.radioButton2;labelPosition=right;verticalLabelPosition=middle;align=left;verticalAlign=middle;gradientColor=none;fillColor=#3399FF;checked=0;spacing=5;checkedFill=#0085FC;checkedStroke=#ffffff;fontFamily=Roboto Mono;fontSource=https%3A%2F%2Ffonts.googleapis.com%2Fcss%3Ffamily%3DRoboto%2BMono;" vertex="1" parent="1">
          <mxGeometry x="370" y="150" width="10" height="10" as="geometry" />
        </mxCell>
        <mxCell id="3-CJCpdt-LU1McN5Vxmz-40" value="Transition" style="shape=flexArrow;endArrow=classic;html=1;rounded=0;endWidth=13.68421052631579;endSize=14.414035087719297;width=15.789473684210526;fontFamily=Roboto Mono;fontSource=https%3A%2F%2Ffonts.googleapis.com%2Fcss%3Ffamily%3DRoboto%2BMono;" edge="1" parent="1">
          <mxGeometry x="-0.1667" width="50" height="50" relative="1" as="geometry">
            <mxPoint x="2530" y="-199" as="sourcePoint" />
            <mxPoint x="2710" y="-200" as="targetPoint" />
            <mxPoint as="offset" />
          </mxGeometry>
        </mxCell>
        <mxCell id="3-CJCpdt-LU1McN5Vxmz-43" style="edgeStyle=orthogonalEdgeStyle;rounded=0;orthogonalLoop=1;jettySize=auto;html=1;fontFamily=Roboto Mono;fontSource=https%3A%2F%2Ffonts.googleapis.com%2Fcss%3Ffamily%3DRoboto%2BMono;" edge="1" parent="1">
          <mxGeometry relative="1" as="geometry">
            <mxPoint x="2600" y="-189" as="targetPoint" />
            <mxPoint x="2600" y="-39" as="sourcePoint" />
          </mxGeometry>
        </mxCell>
        <mxCell id="3-CJCpdt-LU1McN5Vxmz-41" value="&lt;div&gt;Transitions, connect stages&lt;/div&gt;" style="text;html=1;align=center;verticalAlign=middle;whiteSpace=wrap;rounded=0;strokeColor=#d6b656;dashed=1;fillColor=#fff2cc;fontFamily=Roboto Mono;fontSource=https%3A%2F%2Ffonts.googleapis.com%2Fcss%3Ffamily%3DRoboto%2BMono;" vertex="1" parent="1">
          <mxGeometry x="2520" y="-19" width="160" height="30" as="geometry" />
        </mxCell>
        <mxCell id="3-CJCpdt-LU1McN5Vxmz-76" style="edgeStyle=orthogonalEdgeStyle;rounded=0;orthogonalLoop=1;jettySize=auto;html=1;fontFamily=Roboto Mono;fontSource=https%3A%2F%2Ffonts.googleapis.com%2Fcss%3Ffamily%3DRoboto%2BMono;" edge="1" parent="1" source="3-CJCpdt-LU1McN5Vxmz-47" target="3-CJCpdt-LU1McN5Vxmz-60">
          <mxGeometry relative="1" as="geometry" />
        </mxCell>
        <mxCell id="3-CJCpdt-LU1McN5Vxmz-47" value="&lt;span style=&quot;color: rgb(0, 0, 0); text-wrap: wrap;&quot;&gt;When I upload file&lt;/span&gt;" style="sketch=0;outlineConnect=0;fontColor=#232F3E;gradientColor=none;fillColor=#232F3D;strokeColor=none;dashed=0;verticalLabelPosition=bottom;verticalAlign=top;align=center;html=1;fontSize=12;fontStyle=0;aspect=fixed;pointerEvents=1;shape=mxgraph.aws4.user;fontFamily=Roboto Mono;fontSource=https%3A%2F%2Ffonts.googleapis.com%2Fcss%3Ffamily%3DRoboto%2BMono;" vertex="1" parent="1">
          <mxGeometry x="-150" y="-256.12" width="34.25" height="34.25" as="geometry" />
        </mxCell>
        <mxCell id="3-CJCpdt-LU1McN5Vxmz-51" value="Transition" style="shape=flexArrow;endArrow=classic;html=1;rounded=0;endWidth=13.68421052631579;endSize=14.414035087719297;width=15.789473684210526;fontFamily=Roboto Mono;fontSource=https%3A%2F%2Ffonts.googleapis.com%2Fcss%3Ffamily%3DRoboto%2BMono;" edge="1" parent="1">
          <mxGeometry x="-0.1667" width="50" height="50" relative="1" as="geometry">
            <mxPoint x="1250" y="-199" as="sourcePoint" />
            <mxPoint x="1460" y="-200" as="targetPoint" />
            <mxPoint as="offset" />
          </mxGeometry>
        </mxCell>
        <mxCell id="3-CJCpdt-LU1McN5Vxmz-54" style="edgeStyle=orthogonalEdgeStyle;rounded=0;orthogonalLoop=1;jettySize=auto;html=1;fontFamily=Roboto Mono;fontSource=https%3A%2F%2Ffonts.googleapis.com%2Fcss%3Ffamily%3DRoboto%2BMono;" edge="1" parent="1">
          <mxGeometry relative="1" as="geometry">
            <mxPoint x="15" y="-160" as="sourcePoint" />
            <mxPoint x="15" y="-69.75" as="targetPoint" />
          </mxGeometry>
        </mxCell>
        <mxCell id="3-CJCpdt-LU1McN5Vxmz-52" value="CloudWatch&lt;div&gt;Event&lt;/div&gt;" style="sketch=0;points=[[0,0,0],[0.25,0,0],[0.5,0,0],[0.75,0,0],[1,0,0],[0,1,0],[0.25,1,0],[0.5,1,0],[0.75,1,0],[1,1,0],[0,0.25,0],[0,0.5,0],[0,0.75,0],[1,0.25,0],[1,0.5,0],[1,0.75,0]];points=[[0,0,0],[0.25,0,0],[0.5,0,0],[0.75,0,0],[1,0,0],[0,1,0],[0.25,1,0],[0.5,1,0],[0.75,1,0],[1,1,0],[0,0.25,0],[0,0.5,0],[0,0.75,0],[1,0.25,0],[1,0.5,0],[1,0.75,0]];outlineConnect=0;fontColor=#232F3E;fillColor=#E7157B;strokeColor=#ffffff;dashed=0;verticalLabelPosition=bottom;verticalAlign=top;align=center;html=1;fontSize=12;fontStyle=0;aspect=fixed;shape=mxgraph.aws4.resourceIcon;resIcon=mxgraph.aws4.cloudwatch_2;fontFamily=Roboto Mono;fontSource=https%3A%2F%2Ffonts.googleapis.com%2Fcss%3Ffamily%3DRoboto%2BMono;" vertex="1" parent="1">
          <mxGeometry y="-230" width="30" height="30" as="geometry" />
        </mxCell>
        <mxCell id="3-CJCpdt-LU1McN5Vxmz-53" value="Amazon CloudWatch Events rule to automatically start your pipeline when a change occurs in the Amazon S3 object key or S3 folder. Deleting this may prevent changes from being detected in that pipeline. Read more: http://docs.aws.amazon.com/codepipeline/latest/userguide/pipelines-about-starting.html" style="text;html=1;align=left;verticalAlign=top;whiteSpace=wrap;rounded=0;strokeColor=#d6b656;dashed=1;fillColor=#fff2cc;fontFamily=Roboto Mono;fontSource=https%3A%2F%2Ffonts.googleapis.com%2Fcss%3Ffamily%3DRoboto%2BMono;" vertex="1" parent="1">
          <mxGeometry x="-300" y="-60" width="480" height="130" as="geometry" />
        </mxCell>
        <mxCell id="3-CJCpdt-LU1McN5Vxmz-56" value="Action Group 1" style="swimlane;startSize=20;fontFamily=Roboto Mono;fontSource=https%3A%2F%2Ffonts.googleapis.com%2Fcss%3Ffamily%3DRoboto%2BMono;fontSize=11;" vertex="1" parent="1">
          <mxGeometry x="233.38" y="-340" width="706.7" height="300" as="geometry">
            <mxRectangle x="340" y="-110" width="50" height="40" as="alternateBounds" />
          </mxGeometry>
        </mxCell>
        <mxCell id="3-CJCpdt-LU1McN5Vxmz-61" value="Action 1 [Source]" style="swimlane;startSize=23;fontFamily=Roboto Mono;fontSource=https%3A%2F%2Ffonts.googleapis.com%2Fcss%3Ffamily%3DRoboto%2BMono;fontSize=11;" vertex="1" parent="3-CJCpdt-LU1McN5Vxmz-56">
          <mxGeometry x="16.620000000000005" y="30" width="340.08" height="240" as="geometry">
            <mxRectangle x="-170" y="-320" width="70" height="30" as="alternateBounds" />
          </mxGeometry>
        </mxCell>
        <mxCell id="3-CJCpdt-LU1McN5Vxmz-60" value="Bucket 1" style="sketch=0;outlineConnect=0;fontColor=#232F3E;gradientColor=none;fillColor=#7AA116;strokeColor=none;dashed=0;verticalLabelPosition=bottom;verticalAlign=top;align=center;html=1;fontSize=11;fontStyle=0;aspect=fixed;pointerEvents=1;shape=mxgraph.aws4.bucket;fontFamily=Roboto Mono;fontSource=https%3A%2F%2Ffonts.googleapis.com%2Fcss%3Ffamily%3DRoboto%2BMono;" vertex="1" parent="3-CJCpdt-LU1McN5Vxmz-61">
          <mxGeometry x="15.879999999999967" y="46" width="48.08" height="50" as="geometry" />
        </mxCell>
        <mxCell id="3-CJCpdt-LU1McN5Vxmz-62" value="CodePipeline" style="sketch=0;points=[[0,0,0],[0.25,0,0],[0.5,0,0],[0.75,0,0],[1,0,0],[0,1,0],[0.25,1,0],[0.5,1,0],[0.75,1,0],[1,1,0],[0,0.25,0],[0,0.5,0],[0,0.75,0],[1,0.25,0],[1,0.5,0],[1,0.75,0]];outlineConnect=0;fontColor=#232F3E;fillColor=#C925D1;strokeColor=#ffffff;dashed=0;verticalLabelPosition=bottom;verticalAlign=top;align=center;html=1;fontSize=11;fontStyle=0;aspect=fixed;shape=mxgraph.aws4.resourceIcon;resIcon=mxgraph.aws4.codepipeline;fontFamily=Roboto Mono;fontSource=https%3A%2F%2Ffonts.googleapis.com%2Fcss%3Ffamily%3DRoboto%2BMono;" vertex="1" parent="3-CJCpdt-LU1McN5Vxmz-61">
          <mxGeometry x="270" y="48" width="48" height="48" as="geometry" />
        </mxCell>
        <mxCell id="3-CJCpdt-LU1McN5Vxmz-63" value="Source provider" style="edgeStyle=orthogonalEdgeStyle;rounded=0;orthogonalLoop=1;jettySize=auto;html=1;exitX=0;exitY=0.5;exitDx=0;exitDy=0;exitPerimeter=0;fontFamily=Roboto Mono;fontSource=https%3A%2F%2Ffonts.googleapis.com%2Fcss%3Ffamily%3DRoboto%2BMono;fontSize=11;" edge="1" parent="3-CJCpdt-LU1McN5Vxmz-61" source="3-CJCpdt-LU1McN5Vxmz-62">
          <mxGeometry x="0.0351" y="7" relative="1" as="geometry">
            <mxPoint x="68.07999999999998" y="72" as="targetPoint" />
            <mxPoint x="258.08" y="72" as="sourcePoint" />
            <mxPoint y="1" as="offset" />
          </mxGeometry>
        </mxCell>
        <mxCell id="3-CJCpdt-LU1McN5Vxmz-65" style="edgeStyle=orthogonalEdgeStyle;rounded=0;orthogonalLoop=1;jettySize=auto;html=1;fontFamily=Roboto Mono;fontSource=https%3A%2F%2Ffonts.googleapis.com%2Fcss%3Ffamily%3DRoboto%2BMono;fontSize=11;" edge="1" parent="3-CJCpdt-LU1McN5Vxmz-61" source="3-CJCpdt-LU1McN5Vxmz-22">
          <mxGeometry relative="1" as="geometry">
            <mxPoint x="170" y="90" as="targetPoint" />
          </mxGeometry>
        </mxCell>
        <mxCell id="3-CJCpdt-LU1McN5Vxmz-22" value="This is where you stored your input artifacts for your pipeline. Choose the provider and then provide the connection details." style="text;html=1;align=center;verticalAlign=middle;whiteSpace=wrap;rounded=0;strokeColor=#d6b656;dashed=1;fillColor=#fff2cc;fontFamily=Roboto Mono;fontSource=https%3A%2F%2Ffonts.googleapis.com%2Fcss%3Ffamily%3DRoboto%2BMono;fontSize=11;" vertex="1" parent="3-CJCpdt-LU1McN5Vxmz-61">
          <mxGeometry x="57.06" y="160" width="225.96" height="70" as="geometry" />
        </mxCell>
        <mxCell id="3-CJCpdt-LU1McN5Vxmz-66" value="Action 2" style="swimlane;startSize=23;fontFamily=Roboto Mono;fontSource=https%3A%2F%2Ffonts.googleapis.com%2Fcss%3Ffamily%3DRoboto%2BMono;fontSize=11;" vertex="1" parent="3-CJCpdt-LU1McN5Vxmz-56">
          <mxGeometry x="366.62" y="30" width="163.38" height="130" as="geometry">
            <mxRectangle x="-170" y="-320" width="70" height="30" as="alternateBounds" />
          </mxGeometry>
        </mxCell>
        <mxCell id="3-CJCpdt-LU1McN5Vxmz-72" value="Action 3" style="swimlane;startSize=23;fontFamily=Roboto Mono;fontSource=https%3A%2F%2Ffonts.googleapis.com%2Fcss%3Ffamily%3DRoboto%2BMono;fontSize=11;" vertex="1" parent="3-CJCpdt-LU1McN5Vxmz-56">
          <mxGeometry x="366.62" y="170" width="163.38" height="100" as="geometry">
            <mxRectangle x="-170" y="-320" width="70" height="30" as="alternateBounds" />
          </mxGeometry>
        </mxCell>
        <mxCell id="3-CJCpdt-LU1McN5Vxmz-73" value="Action 4" style="swimlane;startSize=23;fontFamily=Roboto Mono;fontSource=https%3A%2F%2Ffonts.googleapis.com%2Fcss%3Ffamily%3DRoboto%2BMono;fontSize=11;" vertex="1" parent="3-CJCpdt-LU1McN5Vxmz-56">
          <mxGeometry x="540" y="30" width="150" height="240" as="geometry">
            <mxRectangle x="-170" y="-320" width="70" height="30" as="alternateBounds" />
          </mxGeometry>
        </mxCell>
        <mxCell id="3-CJCpdt-LU1McN5Vxmz-74" value="Action Group 2" style="swimlane;startSize=23;fontFamily=Roboto Mono;fontSource=https%3A%2F%2Ffonts.googleapis.com%2Fcss%3Ffamily%3DRoboto%2BMono;fontSize=11;" vertex="1" parent="1">
          <mxGeometry x="950" y="-340" width="250" height="300" as="geometry" />
        </mxCell>
        <mxCell id="3-CJCpdt-LU1McN5Vxmz-78" value="&lt;b style=&quot;font-size: 11px;&quot;&gt;Build stage&lt;/b&gt;" style="rounded=0;whiteSpace=wrap;html=1;fillColor=#f5f5f5;verticalAlign=top;align=left;shadow=1;fontColor=#333333;strokeColor=#666666;fontFamily=Roboto Mono;fontSource=https%3A%2F%2Ffonts.googleapis.com%2Fcss%3Ffamily%3DRoboto%2BMono;fontSize=11;" vertex="1" parent="1">
          <mxGeometry x="1470" y="-370" width="1028.5" height="360" as="geometry" />
        </mxCell>
        <mxCell id="3-CJCpdt-LU1McN5Vxmz-79" value="Action Group 1" style="swimlane;startSize=20;fontFamily=Roboto Mono;fontSource=https%3A%2F%2Ffonts.googleapis.com%2Fcss%3Ffamily%3DRoboto%2BMono;fontSize=11;" vertex="1" parent="1">
          <mxGeometry x="1491.88" y="-340" width="706.7" height="300" as="geometry">
            <mxRectangle x="340" y="-110" width="50" height="40" as="alternateBounds" />
          </mxGeometry>
        </mxCell>
        <mxCell id="3-CJCpdt-LU1McN5Vxmz-80" value="Action 1 [Build]" style="swimlane;startSize=23;fontFamily=Roboto Mono;fontSource=https%3A%2F%2Ffonts.googleapis.com%2Fcss%3Ffamily%3DRoboto%2BMono;fontSize=11;" vertex="1" parent="3-CJCpdt-LU1McN5Vxmz-79">
          <mxGeometry x="16.620000000000005" y="30" width="340.08" height="240" as="geometry">
            <mxRectangle x="-170" y="-320" width="70" height="30" as="alternateBounds" />
          </mxGeometry>
        </mxCell>
        <mxCell id="3-CJCpdt-LU1McN5Vxmz-90" value="CodeBuild" style="sketch=0;points=[[0,0,0],[0.25,0,0],[0.5,0,0],[0.75,0,0],[1,0,0],[0,1,0],[0.25,1,0],[0.5,1,0],[0.75,1,0],[1,1,0],[0,0.25,0],[0,0.5,0],[0,0.75,0],[1,0.25,0],[1,0.5,0],[1,0.75,0]];outlineConnect=0;fontColor=#232F3E;fillColor=#6666FF;strokeColor=#ffffff;dashed=0;verticalLabelPosition=bottom;verticalAlign=top;align=center;html=1;fontSize=12;fontStyle=0;aspect=fixed;shape=mxgraph.aws4.resourceIcon;resIcon=mxgraph.aws4.codebuild;fontFamily=Roboto Mono;fontSource=https%3A%2F%2Ffonts.googleapis.com%2Fcss%3Ffamily%3DRoboto%2BMono;" vertex="1" parent="3-CJCpdt-LU1McN5Vxmz-80">
          <mxGeometry x="31.5" y="56" width="78" height="78" as="geometry" />
        </mxCell>
        <mxCell id="3-CJCpdt-LU1McN5Vxmz-91" value="or" style="text;html=1;align=center;verticalAlign=middle;whiteSpace=wrap;rounded=0;fontFamily=Roboto Mono;fontSource=https%3A%2F%2Ffonts.googleapis.com%2Fcss%3Ffamily%3DRoboto%2BMono;" vertex="1" parent="3-CJCpdt-LU1McN5Vxmz-80">
          <mxGeometry x="121.5" y="80" width="60" height="30" as="geometry" />
        </mxCell>
        <mxCell id="3-CJCpdt-LU1McN5Vxmz-92" value="Jenkins" style="whiteSpace=wrap;html=1;aspect=fixed;fontFamily=Roboto Mono;fontSource=https%3A%2F%2Ffonts.googleapis.com%2Fcss%3Ffamily%3DRoboto%2BMono;" vertex="1" parent="3-CJCpdt-LU1McN5Vxmz-80">
          <mxGeometry x="191.5" y="55" width="80" height="80" as="geometry" />
        </mxCell>
        <mxCell id="3-CJCpdt-LU1McN5Vxmz-86" value="Action 2" style="swimlane;startSize=23;fontFamily=Roboto Mono;fontSource=https%3A%2F%2Ffonts.googleapis.com%2Fcss%3Ffamily%3DRoboto%2BMono;fontSize=11;" vertex="1" parent="3-CJCpdt-LU1McN5Vxmz-79">
          <mxGeometry x="366.62" y="30" width="163.38" height="130" as="geometry">
            <mxRectangle x="-170" y="-320" width="70" height="30" as="alternateBounds" />
          </mxGeometry>
        </mxCell>
        <mxCell id="3-CJCpdt-LU1McN5Vxmz-87" value="Action 3" style="swimlane;startSize=23;fontFamily=Roboto Mono;fontSource=https%3A%2F%2Ffonts.googleapis.com%2Fcss%3Ffamily%3DRoboto%2BMono;fontSize=11;" vertex="1" parent="3-CJCpdt-LU1McN5Vxmz-79">
          <mxGeometry x="366.62" y="170" width="163.38" height="100" as="geometry">
            <mxRectangle x="-170" y="-320" width="70" height="30" as="alternateBounds" />
          </mxGeometry>
        </mxCell>
        <mxCell id="3-CJCpdt-LU1McN5Vxmz-88" value="Action 4" style="swimlane;startSize=23;fontFamily=Roboto Mono;fontSource=https%3A%2F%2Ffonts.googleapis.com%2Fcss%3Ffamily%3DRoboto%2BMono;fontSize=11;" vertex="1" parent="3-CJCpdt-LU1McN5Vxmz-79">
          <mxGeometry x="540" y="30" width="150" height="240" as="geometry">
            <mxRectangle x="-170" y="-320" width="70" height="30" as="alternateBounds" />
          </mxGeometry>
        </mxCell>
        <mxCell id="3-CJCpdt-LU1McN5Vxmz-89" value="Action Group 2" style="swimlane;startSize=23;fontFamily=Roboto Mono;fontSource=https%3A%2F%2Ffonts.googleapis.com%2Fcss%3Ffamily%3DRoboto%2BMono;fontSize=11;" vertex="1" parent="1">
          <mxGeometry x="2208.5" y="-340" width="250" height="300" as="geometry" />
        </mxCell>
        <mxCell id="3-CJCpdt-LU1McN5Vxmz-93" value="&lt;b style=&quot;font-size: 11px;&quot;&gt;Build stage&lt;/b&gt;" style="rounded=0;whiteSpace=wrap;html=1;fillColor=#f5f5f5;verticalAlign=top;align=left;shadow=1;fontColor=#333333;strokeColor=#666666;fontFamily=Roboto Mono;fontSource=https%3A%2F%2Ffonts.googleapis.com%2Fcss%3Ffamily%3DRoboto%2BMono;fontSize=11;" vertex="1" parent="1">
          <mxGeometry x="2740" y="-370" width="1028.5" height="360" as="geometry" />
        </mxCell>
        <mxCell id="3-CJCpdt-LU1McN5Vxmz-94" value="Action Group 1" style="swimlane;startSize=20;fontFamily=Roboto Mono;fontSource=https%3A%2F%2Ffonts.googleapis.com%2Fcss%3Ffamily%3DRoboto%2BMono;fontSize=11;" vertex="1" parent="1">
          <mxGeometry x="2761.88" y="-340" width="706.7" height="300" as="geometry">
            <mxRectangle x="2761.88" y="-340" width="50" height="40" as="alternateBounds" />
          </mxGeometry>
        </mxCell>
        <mxCell id="3-CJCpdt-LU1McN5Vxmz-95" value="Action 1 [Deploy]" style="swimlane;startSize=23;fontFamily=Roboto Mono;fontSource=https%3A%2F%2Ffonts.googleapis.com%2Fcss%3Ffamily%3DRoboto%2BMono;fontSize=11;" vertex="1" parent="3-CJCpdt-LU1McN5Vxmz-94">
          <mxGeometry x="16.620000000000005" y="30" width="340.08" height="240" as="geometry">
            <mxRectangle x="16.620000000000005" y="30" width="70" height="30" as="alternateBounds" />
          </mxGeometry>
        </mxCell>
        <mxCell id="3-CJCpdt-LU1McN5Vxmz-99" value="Action 2" style="swimlane;startSize=23;fontFamily=Roboto Mono;fontSource=https%3A%2F%2Ffonts.googleapis.com%2Fcss%3Ffamily%3DRoboto%2BMono;fontSize=11;" vertex="1" parent="3-CJCpdt-LU1McN5Vxmz-94">
          <mxGeometry x="366.62" y="30" width="163.38" height="130" as="geometry">
            <mxRectangle x="-170" y="-320" width="70" height="30" as="alternateBounds" />
          </mxGeometry>
        </mxCell>
        <mxCell id="3-CJCpdt-LU1McN5Vxmz-100" value="Action 3" style="swimlane;startSize=23;fontFamily=Roboto Mono;fontSource=https%3A%2F%2Ffonts.googleapis.com%2Fcss%3Ffamily%3DRoboto%2BMono;fontSize=11;" vertex="1" parent="3-CJCpdt-LU1McN5Vxmz-94">
          <mxGeometry x="366.62" y="170" width="163.38" height="100" as="geometry">
            <mxRectangle x="-170" y="-320" width="70" height="30" as="alternateBounds" />
          </mxGeometry>
        </mxCell>
        <mxCell id="3-CJCpdt-LU1McN5Vxmz-101" value="Action 4" style="swimlane;startSize=23;fontFamily=Roboto Mono;fontSource=https%3A%2F%2Ffonts.googleapis.com%2Fcss%3Ffamily%3DRoboto%2BMono;fontSize=11;" vertex="1" parent="3-CJCpdt-LU1McN5Vxmz-94">
          <mxGeometry x="540" y="30" width="150" height="240" as="geometry">
            <mxRectangle x="-170" y="-320" width="70" height="30" as="alternateBounds" />
          </mxGeometry>
        </mxCell>
        <mxCell id="3-CJCpdt-LU1McN5Vxmz-102" value="Action Group 2" style="swimlane;startSize=23;fontFamily=Roboto Mono;fontSource=https%3A%2F%2Ffonts.googleapis.com%2Fcss%3Ffamily%3DRoboto%2BMono;fontSize=11;" vertex="1" parent="1">
          <mxGeometry x="3478.5" y="-340" width="250" height="300" as="geometry" />
        </mxCell>
        <mxCell id="3-CJCpdt-LU1McN5Vxmz-104" value="Deploy provider" style="edgeStyle=orthogonalEdgeStyle;rounded=0;orthogonalLoop=1;jettySize=auto;html=1;fontFamily=Roboto Mono;fontSource=https%3A%2F%2Ffonts.googleapis.com%2Fcss%3Ffamily%3DRoboto%2BMono;" edge="1" parent="1">
          <mxGeometry x="-0.21" y="-9" relative="1" as="geometry">
            <mxPoint x="3017.01" y="-241.34" as="sourcePoint" />
            <mxPoint x="2865.0842056880856" y="-241.3055172413793" as="targetPoint" />
            <mxPoint as="offset" />
          </mxGeometry>
        </mxCell>
        <mxCell id="3-CJCpdt-LU1McN5Vxmz-105" value="CodePipeline" style="sketch=0;points=[[0,0,0],[0.25,0,0],[0.5,0,0],[0.75,0,0],[1,0,0],[0,1,0],[0.25,1,0],[0.5,1,0],[0.75,1,0],[1,1,0],[0,0.25,0],[0,0.5,0],[0,0.75,0],[1,0.25,0],[1,0.5,0],[1,0.75,0]];outlineConnect=0;fontColor=#232F3E;fillColor=#C925D1;strokeColor=#ffffff;dashed=0;verticalLabelPosition=bottom;verticalAlign=top;align=center;html=1;fontSize=12;fontStyle=0;aspect=fixed;shape=mxgraph.aws4.resourceIcon;resIcon=mxgraph.aws4.codepipeline;fontFamily=Roboto Mono;fontSource=https%3A%2F%2Ffonts.googleapis.com%2Fcss%3Ffamily%3DRoboto%2BMono;" vertex="1" parent="1">
          <mxGeometry x="3027" y="-264" width="48" height="48" as="geometry" />
        </mxCell>
        <mxCell id="3-CJCpdt-LU1McN5Vxmz-108" style="edgeStyle=orthogonalEdgeStyle;rounded=0;orthogonalLoop=1;jettySize=auto;html=1;fontFamily=Roboto Mono;fontSource=https%3A%2F%2Ffonts.googleapis.com%2Fcss%3Ffamily%3DRoboto%2BMono;" edge="1" parent="1" source="3-CJCpdt-LU1McN5Vxmz-106">
          <mxGeometry relative="1" as="geometry">
            <mxPoint x="2960" y="-240" as="targetPoint" />
            <Array as="points">
              <mxPoint x="2960" y="-194" />
              <mxPoint x="2961" y="-194" />
              <mxPoint x="2961" y="-240" />
            </Array>
          </mxGeometry>
        </mxCell>
        <mxCell id="3-CJCpdt-LU1McN5Vxmz-106" value="&lt;div&gt;Choose how you deploy to instances. Choose the provider, and then provide the configuration details for that provider.&lt;/div&gt;&lt;div&gt;&lt;br&gt;&lt;/div&gt;" style="text;html=1;align=center;verticalAlign=middle;whiteSpace=wrap;rounded=0;strokeColor=#d6b656;dashed=1;fillColor=#fff2cc;fontFamily=Roboto Mono;fontSource=https%3A%2F%2Ffonts.googleapis.com%2Fcss%3Ffamily%3DRoboto%2BMono;" vertex="1" parent="1">
          <mxGeometry x="2800" y="-150" width="310" height="60" as="geometry" />
        </mxCell>
        <mxCell id="3-CJCpdt-LU1McN5Vxmz-107" value="app" style="image;html=1;image=img/lib/clip_art/general/Full_Folder_128x128.png;fontFamily=Roboto Mono;fontSource=https%3A%2F%2Ffonts.googleapis.com%2Fcss%3Ffamily%3DRoboto%2BMono;" vertex="1" parent="1">
          <mxGeometry x="2880" y="-221.87" width="40" height="31" as="geometry" />
        </mxCell>
        <mxCell id="3-CJCpdt-LU1McN5Vxmz-103" value="Bucket 2" style="sketch=0;outlineConnect=0;fontColor=#232F3E;gradientColor=none;fillColor=#7AA116;strokeColor=none;dashed=0;verticalLabelPosition=bottom;verticalAlign=top;align=center;html=1;fontSize=12;fontStyle=0;aspect=fixed;pointerEvents=1;shape=mxgraph.aws4.bucket;fontFamily=Roboto Mono;fontSource=https%3A%2F%2Ffonts.googleapis.com%2Fcss%3Ffamily%3DRoboto%2BMono;" vertex="1" parent="1">
          <mxGeometry x="2817" y="-266" width="48.08" height="50" as="geometry" />
        </mxCell>
      </root>
    </mxGraphModel>
  </diagram>
</mxfile>
